<svg width="349" height="105" viewBox="0 0 349 105" fill="none" xmlns="http://www.w3.org/2000/svg">
<g filter="url(#filter0_b_2_4)">
<rect width="348.066" height="105" fill="#1E1C1C"/>
<rect x="0.5" y="0.5" width="347.066" height="104" stroke="black"/>
</g>
<path d="M31.84 76.32C29.0133 76.32 26.2933 75.8933 23.68 75.04C21.12 74.24 19.04 72.88 17.44 70.96C15.84 69.04 15.04 66.4533 15.04 63.2C15.04 59.7333 15.7067 56.3467 17.04 53.04C18.3733 49.7333 20.16 46.6667 22.4 43.84C24.64 40.96 27.1467 38.48 29.92 36.4C32.3733 34.5333 35.2 33.0133 38.4 31.84C41.6533 30.6667 44.88 30.08 48.08 30.08C49.4133 30.08 50.6667 30.1867 51.84 30.4C53.0133 30.56 54.2133 30.9333 55.44 31.52C56.5067 32 57.36 32.6133 58 33.36C58.64 34.0533 58.96 34.8533 58.96 35.76C58.96 35.8667 58.96 36 58.96 36.16C58.96 36.32 58.9333 36.4533 58.88 36.56C58.6667 37.4133 58.16 38.4 57.36 39.52C56.6133 40.5867 56.0267 41.7067 55.6 42.88C55.5467 43.0933 55.2533 43.28 54.72 43.44C54.1867 43.5467 53.9733 43.4933 54.08 43.28C54.5067 42.5867 54.8267 41.7333 55.04 40.72C55.3067 39.7067 55.44 38.6933 55.44 37.68C55.44 36.9333 55.36 36.24 55.2 35.6C55.0933 34.9067 54.88 34.32 54.56 33.84C54.0267 32.88 53.2 32.2133 52.08 31.84C50.96 31.4667 49.76 31.28 48.48 31.28C47.2533 31.28 46.0267 31.4133 44.8 31.68C43.5733 31.9467 42.5067 32.24 41.6 32.56C38.5067 33.68 35.5467 35.44 32.72 37.84C30.2133 40.0267 27.9733 42.56 26 45.44C24.08 48.32 22.56 51.28 21.44 54.32C20.32 57.36 19.76 60.2667 19.76 63.04C19.76 65.8667 20.3733 68.1067 21.6 69.76C22.8267 71.4133 24.4267 72.5867 26.4 73.28C28.3733 73.9733 30.5067 74.32 32.8 74.32C34.8267 74.32 36.8267 74.1067 38.8 73.68C40.8267 73.2533 42.6667 72.72 44.32 72.08C47.1467 71.0133 49.68 69.7067 51.92 68.16C54.2133 66.6133 56.3467 64.6133 58.32 62.16C58.5867 61.8933 58.7733 61.76 58.88 61.76C59.04 61.76 59.12 61.8667 59.12 62.08C59.12 62.5067 58.9067 63.0133 58.48 63.6C56.6667 66.0533 54.6133 68.1067 52.32 69.76C50.0267 71.4133 47.5733 72.7733 44.96 73.84C43.2 74.5333 41.1467 75.12 38.8 75.6C36.5067 76.08 34.1867 76.32 31.84 76.32ZM61.4675 74.64C59.2808 74.64 57.7608 74.2133 56.9075 73.36C56.0542 72.5067 55.6275 71.4667 55.6275 70.24C55.6275 68.6933 56.0275 67.04 56.8275 65.28C57.6808 63.52 58.4808 62.0267 59.2275 60.8C60.0808 59.52 61.2275 58.1867 62.6675 56.8C64.1075 55.4133 65.6808 54.24 67.3875 53.28C69.0942 52.32 70.7475 51.84 72.3475 51.84C73.7342 51.84 74.6942 52.1867 75.2275 52.88C75.7608 53.52 76.0275 54.2933 76.0275 55.2C76.0275 56.8533 75.5208 58.2133 74.5075 59.28C73.5475 60.3467 72.3475 61.2267 70.9075 61.92C69.4675 62.56 68.0808 63.0933 66.7475 63.52C65.9475 63.7333 65.0142 63.9467 63.9475 64.16C62.8808 64.3733 61.8675 64.48 60.9075 64.48C60.5342 65.44 60.2408 66.3733 60.0275 67.28C59.8142 68.1867 59.7075 69.0133 59.7075 69.76C59.7075 70.6667 59.9208 71.4133 60.3475 72C60.8275 72.5867 61.6008 72.88 62.6675 72.88C63.0942 72.88 63.6008 72.8267 64.1875 72.72C64.7742 72.6133 65.4142 72.4533 66.1075 72.24C67.7075 71.7067 69.2808 70.8533 70.8275 69.68C72.3742 68.5067 73.7875 67.2533 75.0675 65.92C76.4008 64.5333 77.4142 63.3867 78.1075 62.48C78.2675 62.64 78.3475 62.8267 78.3475 63.04C78.3475 63.3067 78.1608 63.7333 77.7875 64.32C76.7208 65.8133 75.3342 67.36 73.6275 68.96C71.9208 70.56 70.0275 71.92 67.9475 73.04C65.8675 74.1067 63.7075 74.64 61.4675 74.64ZM61.5475 62.88C62.2408 62.9333 63.0142 62.9333 63.8675 62.88C64.7742 62.7733 65.6542 62.5867 66.5075 62.32C68.6942 61.68 70.2675 60.6667 71.2275 59.28C72.2408 57.84 72.7475 56.56 72.7475 55.44C72.7475 54.8 72.6142 54.2667 72.3475 53.84C72.0808 53.4133 71.6542 53.2 71.0675 53.2C69.5208 53.2 68.1342 53.7867 66.9075 54.96C65.6808 56.08 64.6142 57.3867 63.7075 58.88C62.8008 60.3733 62.0808 61.7067 61.5475 62.88ZM77.3094 75.12C77.096 75.12 77.096 74.9067 77.3094 74.48C77.576 74 77.816 73.4667 78.0294 72.88C78.296 72.2933 78.5627 71.6533 78.8294 70.96C79.3627 69.68 79.9494 68.24 80.5894 66.64C81.2294 65.04 81.8427 63.4933 82.4294 62C83.016 60.4533 83.5227 59.1467 83.9494 58.08C84.4294 56.96 84.7494 56.24 84.9094 55.92C84.1627 56.72 83.256 57.7333 82.1894 58.96C81.176 60.1333 80.216 61.28 79.3094 62.4C78.4027 63.52 77.7094 64.4 77.2294 65.04C77.0694 65.2533 76.936 65.36 76.8294 65.36C76.7227 65.36 76.6694 65.2267 76.6694 64.96C76.6694 64.5333 76.8027 64.1333 77.0694 63.76C78.0827 62.48 79.2027 61.04 80.4294 59.44C81.7094 57.84 82.856 56.3733 83.8694 55.04C84.8827 53.6533 85.5227 52.7467 85.7894 52.32C86.376 52.2133 87.2294 52.0533 88.3494 51.84C89.5227 51.6267 90.3227 51.3333 90.7494 50.96C90.9094 50.8 91.0694 50.72 91.2294 50.72C91.336 50.72 91.3894 50.8267 91.3894 51.04C91.4427 51.2 91.3894 51.3867 91.2294 51.6C90.9094 51.92 90.4294 52.6133 89.7894 53.68C89.2027 54.7467 88.536 55.9733 87.7894 57.36C87.0427 58.7467 86.3227 60.08 85.6294 61.36C86.1627 60.56 86.856 59.6267 87.7094 58.56C88.616 57.44 89.6027 56.3733 90.6694 55.36C91.736 54.2933 92.8027 53.4133 93.8694 52.72C94.9894 52.0267 96.0294 51.68 96.9894 51.68C97.6827 51.68 98.2694 51.84 98.7494 52.16C99.2294 52.4267 99.6027 52.9333 99.8694 53.68C100.029 54.0533 100.109 54.48 100.109 54.96C100.109 55.8667 99.8694 56.7467 99.3894 57.6C98.9627 58.4 98.6427 59.0133 98.4294 59.44C98.376 59.6 98.1894 59.76 97.8694 59.92C97.5494 60.0267 97.416 59.9733 97.4694 59.76C97.5227 59.4933 97.5494 59.2267 97.5494 58.96C97.6027 58.6933 97.6294 58.4 97.6294 58.08C97.6294 57.1733 97.4427 56.3467 97.0694 55.6C96.7494 54.8533 96.136 54.48 95.2294 54.48C94.376 54.48 93.336 55.0133 92.1094 56.08C90.8827 57.1467 89.656 58.3733 88.4294 59.76C86.8827 61.5733 85.656 63.3067 84.7494 64.96C83.8427 66.56 83.096 68.1333 82.5094 69.68C82.1894 70.5333 81.8694 71.3867 81.5494 72.24C81.2294 73.04 80.9894 73.68 80.8294 74.16C80.136 74.2133 79.4427 74.3733 78.7494 74.64C78.056 74.96 77.576 75.12 77.3094 75.12ZM80.0662 92.08C77.9862 92.08 76.2529 91.7333 74.8662 91.04C73.4262 90.4 72.4662 89.4133 71.9862 88.08C71.9329 87.92 71.9062 87.76 71.9062 87.6C71.8529 87.44 71.8262 87.2533 71.8262 87.04C71.8262 86.24 72.0129 85.3333 72.3863 84.32C72.7596 83.36 73.1596 82.32 73.5862 81.2C73.7462 80.88 73.9329 80.72 74.1462 80.72C74.5196 80.72 74.6262 80.9867 74.4662 81.52C74.0929 82.32 73.9062 83.1733 73.9062 84.08C73.9062 85.8933 74.7062 87.3333 76.3062 88.4C77.9062 89.4667 79.7196 90 81.7462 90C82.5462 90 83.3729 89.8933 84.2262 89.68C85.0262 89.52 85.7996 89.2533 86.5462 88.88C89.0529 87.6 91.1062 85.8933 92.7062 83.76C94.3062 81.6267 95.7196 79.4133 96.9463 77.12C98.8129 73.5467 100.413 69.8133 101.746 65.92C103.133 61.9733 104.6 58.08 106.146 54.24H104.306C104.04 54.24 103.746 54.2667 103.426 54.32C103.106 54.3733 102.813 54.4267 102.546 54.48L102.386 54.4C102.493 53.8133 103 53.3067 103.906 52.88C104.866 52.4 105.613 52.16 106.146 52.16H107.106C107.693 50.72 108.466 49.0133 109.426 47.04C110.44 45.0667 111.453 43.12 112.466 41.2C113.533 39.2267 114.466 37.5733 115.266 36.24C117.506 32.56 119.96 29.7867 122.626 27.92C125.293 26.0533 128.253 25.12 131.506 25.12C132.146 25.12 132.76 25.3333 133.346 25.76C133.986 26.1333 134.28 26.72 134.226 27.52L133.986 30.4C133.986 30.56 133.853 30.64 133.586 30.64C133.48 30.64 133.426 30.6133 133.426 30.56C133.266 29.6 132.76 28.8533 131.906 28.32C131.106 27.7867 130.146 27.52 129.026 27.52C128.226 27.52 127.373 27.68 126.466 28C124.973 28.48 123.533 29.36 122.146 30.64C120.813 31.8667 119.373 33.8133 117.826 36.48C117.08 37.8133 116.306 39.3867 115.506 41.2C114.706 43.0133 113.906 44.88 113.106 46.8C112.306 48.72 111.533 50.5067 110.786 52.16C112.066 52.16 113.32 52.1867 114.546 52.24C115.773 52.24 116.92 52.24 117.986 52.24C119.586 52.24 121.053 52.1867 122.386 52.08C123.72 51.9733 124.893 51.7333 125.906 51.36L127.026 50.96C127.133 50.9067 127.293 50.88 127.506 50.88C127.613 50.88 127.666 50.9333 127.666 51.04C127.666 51.2 127.56 51.3867 127.346 51.6C127.026 51.9733 126.466 52.88 125.666 54.32C124.866 55.76 124.013 57.36 123.106 59.12C122.253 60.8267 121.48 62.3733 120.786 63.76C119.986 65.2 119.32 66.5867 118.786 67.92C118.253 69.2533 117.986 70.2133 117.986 70.8C117.986 71.5467 118.36 71.92 119.106 71.92C119.8 71.92 120.706 71.4933 121.826 70.64C122.946 69.7867 124.093 68.7733 125.266 67.6C126.44 66.3733 127.453 65.2533 128.306 64.24C128.573 63.92 128.893 63.5467 129.266 63.12C129.64 62.64 129.88 62.3467 129.986 62.24C130.306 62.56 130.28 63.04 129.906 63.68C129.533 64.2667 129.213 64.6933 128.946 64.96C127.773 66.3467 126.52 67.76 125.186 69.2C123.853 70.64 122.413 71.84 120.866 72.8C119.32 73.76 117.613 74.24 115.746 74.24C115.213 74.24 114.76 74.1333 114.386 73.92C114.013 73.7067 113.826 73.3067 113.826 72.72C113.826 71.9733 114.013 71.0933 114.386 70.08C114.813 69.0667 115.266 68.0533 115.746 67.04C116.28 66.0267 116.68 65.2 116.946 64.56C117.32 63.8133 117.773 62.8533 118.306 61.68C118.893 60.4533 119.426 59.3067 119.906 58.24C120.44 57.12 120.813 56.3467 121.026 55.92C121.293 55.3867 121.453 54.9333 121.506 54.56C121.613 54.1333 121.693 53.7867 121.746 53.52C120.68 53.7333 119.4 53.92 117.906 54.08C116.413 54.1867 114.946 54.24 113.506 54.24C112.066 54.24 110.866 54.24 109.906 54.24C108.733 57.1733 107.613 59.9733 106.546 62.64C105.533 65.2533 104.413 67.8133 103.186 70.32C102.173 72.56 100.92 74.9333 99.4263 77.44C97.9329 79.9467 96.2263 82.32 94.3062 84.56C92.3862 86.8 90.2529 88.6133 87.9062 90C85.5062 91.3867 82.8929 92.08 80.0662 92.08ZM129.666 43.44C128.866 43.44 128.306 43.2 127.986 42.72C127.933 42.56 127.853 42.4 127.746 42.24C127.693 42.08 127.666 41.92 127.666 41.76C127.666 40.8533 128.093 40.1333 128.946 39.6C129.533 39.28 130.066 39.12 130.546 39.12C131.346 39.12 131.906 39.36 132.226 39.84C132.333 40 132.413 40.16 132.466 40.32C132.52 40.48 132.546 40.64 132.546 40.8C132.546 41.7067 132.12 42.4267 131.266 42.96C130.733 43.28 130.2 43.44 129.666 43.44ZM131.67 74.24C131.137 74.24 130.683 74.1333 130.31 73.92C129.937 73.7067 129.75 73.3067 129.75 72.72C129.75 71.9733 129.937 71.0933 130.31 70.08C130.737 69.0667 131.19 68.0533 131.67 67.04C132.15 66.0267 132.55 65.2 132.87 64.56C133.137 64.08 133.483 63.3333 133.91 62.32C134.39 61.2533 134.87 60.16 135.35 59.04C135.883 57.8667 136.31 56.88 136.63 56.08C137.003 55.28 137.19 54.88 137.19 54.88C136.71 55.4133 136.07 56.16 135.27 57.12C134.523 58.08 133.697 59.0933 132.79 60.16C131.937 61.1733 131.137 62.1333 130.39 63.04C129.697 63.9467 129.19 64.6133 128.87 65.04C128.71 65.2533 128.577 65.36 128.47 65.36C128.363 65.36 128.31 65.2267 128.31 64.96C128.31 64.5333 128.443 64.1333 128.71 63.76C129.35 62.96 130.123 62 131.03 60.88C131.937 59.7067 132.843 58.5333 133.75 57.36C134.71 56.1867 135.537 55.1467 136.23 54.24C135.803 54.24 135.243 54.2667 134.55 54.32C133.91 54.3733 133.323 54.4533 132.79 54.56C132.257 54.6133 131.963 54.64 131.91 54.64C131.643 54.64 131.67 54.4267 131.99 54C132.31 53.5733 132.737 53.1467 133.27 52.72C133.803 52.2933 134.203 52.08 134.47 52.08C134.523 52.08 134.95 52.1067 135.75 52.16C136.55 52.16 137.137 52.16 137.51 52.16C138.577 50.72 139.617 49.0667 140.63 47.2C141.697 45.3333 142.737 43.28 143.75 41.04C144.177 40.9867 144.897 40.6933 145.91 40.16C146.977 39.5733 147.803 38.9867 148.39 38.4C148.657 38.1333 148.87 38 149.03 38C149.35 38 149.35 38.2133 149.03 38.64C148.657 39.0667 148.017 39.9733 147.11 41.36C146.203 42.6933 145.19 44.32 144.07 46.24C142.95 48.1067 141.883 50.08 140.87 52.16H147.35C147.937 52.16 148.23 52.24 148.23 52.4C148.23 52.6133 147.83 52.8267 147.03 53.04C146.123 53.3067 145.163 53.4667 144.15 53.52C143.19 53.5733 142.283 53.68 141.43 53.84C140.63 54 140.043 54.3467 139.67 54.88C139.35 55.2533 138.897 56.0533 138.31 57.28C137.723 58.5067 137.083 59.92 136.39 61.52C135.75 63.0667 135.19 64.64 134.71 66.24C134.23 67.7867 133.937 69.0933 133.83 70.16V70.48C133.83 70.9067 133.963 71.2533 134.23 71.52C134.497 71.7867 134.763 71.92 135.03 71.92C135.723 71.92 136.603 71.4933 137.67 70.64C138.79 69.7867 139.937 68.7733 141.11 67.6C142.283 66.3733 143.297 65.2533 144.15 64.24C144.523 63.8133 144.843 63.4133 145.11 63.04C145.43 62.6667 145.617 62.4267 145.67 62.32C145.777 62.5333 145.83 62.6933 145.83 62.8C145.83 63.12 145.723 63.4667 145.51 63.84C145.35 64.2133 145.163 64.5333 144.95 64.8C143.937 66.1333 142.71 67.5467 141.27 69.04C139.83 70.48 138.283 71.7067 136.63 72.72C135.03 73.7333 133.377 74.24 131.67 74.24ZM136.089 102C134.063 102 132.116 101.52 130.249 100.56C128.329 99.6533 126.916 98.24 126.009 96.32C125.689 95.6267 125.476 94.88 125.369 94.08C125.263 93.3333 125.209 92.5867 125.209 91.84V90.96C125.209 90.5333 125.263 90.1333 125.369 89.76C125.476 89.44 125.743 89.28 126.169 89.28C126.276 89.28 126.329 89.3333 126.329 89.44C126.329 89.76 126.303 90.08 126.249 90.4C126.196 90.72 126.169 91.0667 126.169 91.44C126.169 93.8933 126.969 95.76 128.569 97.04C130.116 98.32 132.063 98.96 134.409 98.96C135.369 98.96 136.356 98.8533 137.369 98.64C138.383 98.4267 139.343 98.1333 140.249 97.76C143.609 96.32 146.516 94.2667 148.969 91.6C151.476 88.9867 153.663 86.0267 155.529 82.72C157.396 79.4133 159.076 76.0533 160.569 72.64C161.423 70.6133 162.169 68.64 162.809 66.72C163.503 64.8 164.116 63.0667 164.649 61.52C164.116 62.2667 163.423 63.1733 162.569 64.24C161.716 65.3067 160.863 66.3467 160.009 67.36C159.156 68.32 158.409 69.0933 157.769 69.68C156.436 70.96 154.996 72.0533 153.449 72.96C151.956 73.8133 150.409 74.24 148.809 74.24C148.276 74.24 147.823 74.1333 147.449 73.92C147.076 73.7067 146.889 73.3067 146.889 72.72C146.889 71.9733 147.076 71.0933 147.449 70.08C147.876 69.0667 148.329 68.0533 148.809 67.04C149.289 66.0267 149.689 65.2 150.009 64.56C150.649 63.3333 151.263 62.1067 151.849 60.88C152.436 59.6533 152.943 58.6133 153.369 57.76C153.796 56.96 154.009 56.4267 154.009 56.16C154.009 55.7333 153.689 55.7333 153.049 56.16C152.463 56.5867 151.903 57.0133 151.369 57.44C150.196 58.56 148.969 59.8933 147.689 61.44C146.409 62.9333 145.423 64.1333 144.729 65.04C144.569 65.2533 144.436 65.36 144.329 65.36C144.223 65.36 144.169 65.2267 144.169 64.96C144.169 64.5333 144.303 64.1333 144.569 63.76C145.316 62.6933 146.196 61.52 147.209 60.24C148.223 58.96 149.263 57.7333 150.329 56.56C151.343 55.4933 152.383 54.4533 153.449 53.44C154.516 52.4267 155.876 51.92 157.529 51.92C158.649 51.92 159.209 52.3467 159.209 53.2C159.209 53.9467 158.889 54.8 158.249 55.76C157.876 56.3467 157.289 57.3333 156.489 58.72C155.689 60.1067 154.863 61.6267 154.009 63.28C153.209 64.88 152.516 66.3733 151.929 67.76C151.343 69.1467 151.049 70.16 151.049 70.8C151.049 71.5467 151.423 71.92 152.169 71.92C152.756 71.92 153.476 71.6267 154.329 71.04C155.183 70.4 156.063 69.6533 156.969 68.8C158.516 67.3067 159.929 65.6533 161.209 63.84C162.543 62.0267 163.689 60.2933 164.649 58.64C164.809 58.3733 165.076 57.8933 165.449 57.2C165.876 56.5067 166.303 55.84 166.729 55.2C167.209 54.56 167.583 54.1867 167.849 54.08C168.116 53.9733 168.649 53.68 169.449 53.2C170.249 52.72 171.049 52.4 171.849 52.24C172.596 52.08 173.156 52 173.529 52C174.116 52 174.409 52.16 174.409 52.48C174.409 52.9067 174.169 53.12 173.689 53.12C173.103 53.12 172.569 53.28 172.089 53.6C171.609 53.8667 171.236 54.2133 170.969 54.64C170.489 55.3333 169.796 56.5867 168.889 58.4C168.036 60.2133 167.076 62.32 166.009 64.72C164.996 67.0667 163.983 69.4667 162.969 71.92C161.956 74.32 161.023 76.5333 160.169 78.56C158.889 81.6 157.423 84.56 155.769 87.44C154.116 90.3733 152.169 92.9867 149.929 95.28C147.743 97.6267 145.129 99.4667 142.089 100.8C140.276 101.6 138.276 102 136.089 102Z" fill="#E11D48"/>
<path d="M175.555 74C174.578 74 174.09 73.4629 174.09 72.3887V33.5996C174.09 32.5254 174.578 31.9883 175.555 31.9883H181.795C182.537 31.9883 183.094 32.5742 183.465 33.7461L191.844 60.0254C192.703 62.7207 193.211 64.3516 193.367 64.918C193.523 65.4648 193.748 66.4805 194.041 67.9648H194.217C194.51 66.4805 194.734 65.4648 194.891 64.918C195.047 64.3516 195.555 62.7207 196.414 60.0254L204.793 33.7461C205.164 32.5742 205.721 31.9883 206.463 31.9883H212.703C213.68 31.9883 214.168 32.5254 214.168 33.5996V72.3887C214.168 73.4629 213.68 74 212.703 74H210.008C209.031 74 208.543 73.4629 208.543 72.3887V41.6562C208.543 40.875 208.562 40.0938 208.602 39.3125H208.484L197.674 72.2129C197.283 73.4043 196.639 74 195.74 74H192.518C191.619 74 190.975 73.4043 190.584 72.2129L179.773 39.3125H179.656C179.695 40.0938 179.715 40.875 179.715 41.6562V72.3887C179.715 73.4629 179.227 74 178.25 74H175.555ZM221.639 58.6191C221.639 53.7754 222.85 49.918 225.271 47.0469C227.693 44.1758 231.16 42.7402 235.672 42.7402C239.422 42.7402 242.527 44.0586 244.988 46.6953C247.469 49.3125 248.709 53.502 248.709 59.2637C248.709 60.1426 248.309 60.582 247.508 60.582H227.088C227.42 64.3516 228.436 66.9785 230.135 68.4629C231.834 69.9277 233.758 70.6602 235.906 70.6602C238.172 70.6602 239.91 70.2793 241.121 69.5176C242.332 68.7559 243.221 68.0039 243.787 67.2617C244.412 66.4414 245.018 66.2852 245.604 66.793L247.332 68.2871C247.781 68.6777 247.781 69.2148 247.332 69.8984C246.961 70.4648 245.896 71.373 244.139 72.623C242.4 73.873 239.656 74.498 235.906 74.498C231.023 74.498 227.42 73.0625 225.096 70.1914C222.791 67.3203 221.639 63.4629 221.639 58.6191ZM226.971 56.7734H243.523C243.445 54.0391 242.742 51.6465 241.414 49.5957C240.086 47.5254 238.133 46.4902 235.555 46.4902C233.289 46.4902 231.365 47.252 229.783 48.7754C228.201 50.2793 227.264 52.9453 226.971 56.7734ZM262.339 74.4545C260.938 74.4545 259.735 73.9527 258.731 72.9489C257.727 71.9451 257.225 70.7424 257.225 69.3409C257.225 67.9394 257.727 66.7367 258.731 65.733C259.735 64.7292 260.938 64.2273 262.339 64.2273C263.741 64.2273 264.943 64.7292 265.947 65.733C266.951 66.7367 267.453 67.9394 267.453 69.3409C267.453 70.2689 267.216 71.1212 266.743 71.8977C266.288 72.6742 265.672 73.2992 264.896 73.7727C264.138 74.2273 263.286 74.4545 262.339 74.4545ZM279.484 74V30.3636H286.189V74H279.484ZM282.893 23.0909C281.586 23.0909 280.459 22.6458 279.512 21.7557C278.584 20.8655 278.12 19.7955 278.12 18.5455C278.12 17.2955 278.584 16.2254 279.512 15.3352C280.459 14.4451 281.586 14 282.893 14C284.2 14 285.317 14.4451 286.245 15.3352C287.192 16.2254 287.666 17.2955 287.666 18.5455C287.666 19.7955 287.192 20.8655 286.245 21.7557C285.317 22.6458 284.2 23.0909 282.893 23.0909ZM316.196 74.9091C312.256 74.9091 308.8 73.9716 305.826 72.0966C302.872 70.2216 300.561 67.5985 298.895 64.2273C297.247 60.8561 296.423 56.9167 296.423 52.4091C296.423 47.8636 297.247 43.8958 298.895 40.5057C300.561 37.1155 302.872 34.483 305.826 32.608C308.8 30.733 312.256 29.7955 316.196 29.7955C320.135 29.7955 323.582 30.733 326.537 32.608C329.51 34.483 331.821 37.1155 333.468 40.5057C335.135 43.8958 335.968 47.8636 335.968 52.4091C335.968 56.9167 335.135 60.8561 333.468 64.2273C331.821 67.5985 329.51 70.2216 326.537 72.0966C323.582 73.9716 320.135 74.9091 316.196 74.9091ZM316.196 68.8864C319.188 68.8864 321.65 68.1193 323.582 66.5852C325.514 65.0511 326.944 63.0341 327.872 60.5341C328.8 58.0341 329.264 55.3258 329.264 52.4091C329.264 49.4924 328.8 46.7746 327.872 44.2557C326.944 41.7367 325.514 39.7008 323.582 38.1477C321.65 36.5947 319.188 35.8182 316.196 35.8182C313.203 35.8182 310.741 36.5947 308.809 38.1477C306.877 39.7008 305.448 41.7367 304.52 44.2557C303.592 46.7746 303.127 49.4924 303.127 52.4091C303.127 55.3258 303.592 58.0341 304.52 60.5341C305.448 63.0341 306.877 65.0511 308.809 66.5852C310.741 68.1193 313.203 68.8864 316.196 68.8864Z" fill="white"/>
<defs>
<filter id="filter0_b_2_4" x="-50" y="-50" width="448.066" height="205" filterUnits="userSpaceOnUse" color-interpolation-filters="sRGB">
<feFlood flood-opacity="0" result="BackgroundImageFix"/>
<feGaussianBlur in="BackgroundImageFix" stdDeviation="25"/>
<feComposite in2="SourceAlpha" operator="in" result="effect1_backgroundBlur_2_4"/>
<feBlend mode="normal" in="SourceGraphic" in2="effect1_backgroundBlur_2_4" result="shape"/>
</filter>
</defs>
</svg>
